<?xml version="1.0" encoding="UTF-8" standalone="no"?>
<!-- Created with Inkscape (http://www.inkscape.org/) -->

<svg
   xmlns:dc="http://purl.org/dc/elements/1.1/"
   xmlns:cc="http://creativecommons.org/ns#"
   xmlns:rdf="http://www.w3.org/1999/02/22-rdf-syntax-ns#"
   xmlns:svg="http://www.w3.org/2000/svg"
   xmlns="http://www.w3.org/2000/svg"
   xmlns:sodipodi="http://sodipodi.sourceforge.net/DTD/sodipodi-0.dtd"
   xmlns:inkscape="http://www.inkscape.org/namespaces/inkscape"
   width="206"
   height="60"
   id="svg2"
   version="1.1"
   inkscape:version="0.48.4 r9939"
   sodipodi:docname="logo-wide.svg"
   inkscape:export-filename="/home/clay/git/longhorn-bike-coalition-design/png/logo-wide.png"
   inkscape:export-xdpi="90"
   inkscape:export-ydpi="90">
  <defs
     id="defs4" />
  <sodipodi:namedview
     id="base"
     pagecolor="#ffffff"
     bordercolor="#666666"
     borderopacity="1.0"
     inkscape:pageopacity="1"
     inkscape:pageshadow="2"
     inkscape:zoom="1.449"
     inkscape:cx="215.08306"
     inkscape:cy="61.766587"
     inkscape:document-units="px"
     inkscape:current-layer="layer4"
     showgrid="false"
     inkscape:window-width="1600"
     inkscape:window-height="876"
     inkscape:window-x="0"
     inkscape:window-y="24"
     inkscape:window-maximized="1">
    <inkscape:grid
       type="xygrid"
       id="grid2985"
       empspacing="5"
       dotted="true"
       visible="true"
       enabled="true"
       snapvisiblegridlinesonly="true" />
  </sodipodi:namedview>
  <metadata
     id="metadata7">
    <rdf:RDF>
      <cc:Work
         rdf:about="">
        <dc:format>image/svg+xml</dc:format>
        <dc:type
           rdf:resource="http://purl.org/dc/dcmitype/StillImage" />
        <dc:title></dc:title>
      </cc:Work>
    </rdf:RDF>
  </metadata>
  <g
     inkscape:label="frame"
     inkscape:groupmode="layer"
     id="layer1"
     transform="translate(0,-992.36218)">
    <path
       id="path3757"
       style="font-size:medium;font-style:normal;font-variant:normal;font-weight:normal;font-stretch:normal;text-indent:0;text-align:start;text-decoration:none;line-height:normal;letter-spacing:normal;word-spacing:normal;text-transform:none;direction:ltr;block-progression:tb;writing-mode:lr-tb;text-anchor:start;baseline-shift:baseline;color:#000000;fill:#cccccc;fill-opacity:1;stroke:none;stroke-width:8;marker:none;visibility:visible;display:inline;overflow:visible;enable-background:accumulate;font-family:Sans;-inkscape-font-specification:Sans"
       d="m 21.240177,1023.2844 c -5.37293,0 -9.75,4.3771 -9.75,9.75 0,5.3729 4.37707,9.75 9.75,9.75 4.08055,0 7.58191,-2.5145 9.03125,-6.0859 l -0.39062,-0.07 c -0.54478,-0.1004 -1.04171,-0.368 -1.45313,-0.711 -1.14003,2.8538 -3.9157,4.8672 -7.1875,4.8672 -4.29205,0 -7.75,-3.458 -7.75,-7.75 0,-4.292 3.45795,-7.75 7.75,-7.75 1.23246,0 2.39031,0.2956 3.42188,0.8047 -0.0743,-0.7276 0.0906,-1.3961 0.42968,-2.0156 -1.18219,-0.5065 -2.48847,-0.7891 -3.85156,-0.7891 z m 35,0 c -0.37844,0 -0.74981,0.028 -1.11719,0.07 l 0.64844,1.9531 c 0.15547,-0.01 0.31089,-0.023 0.46875,-0.023 4.29205,0 7.75,3.458 7.75,7.75 0,4.2921 -3.45795,7.75 -7.75,7.75 -4.29205,0 -7.75,-3.4579 -7.75,-7.75 0,-2.7132 1.38344,-5.0928 3.48437,-6.4765 l -0.64843,-1.9375 c -2.88782,1.6951 -4.83594,4.8329 -4.83594,8.414 0,5.3729 4.37707,9.75 9.75,9.75 5.37293,0 9.75,-4.3771 9.75,-9.75 0,-5.3729 -4.37707,-9.75 -9.75,-9.75 z m -3.07813,-10.25 a 0.750075,0.750075 0 0 0 -0.60156,0.4297 l -0.42969,0.914 0.6875,2.0625 0.89844,-1.9062 2.02344,0 c 0.79167,0 0.9375,0.375 0.9375,0.75 0,0.375 -0.14583,0.75 -0.9375,0.75 a 0.750075,0.750075 0 1 0 0,1.5 c 1.45833,0 2.4375,-1.125 2.4375,-2.25 0,-1.125 -0.97917,-2.25 -2.4375,-2.25 l -2.5,0 a 0.750075,0.750075 0 0 0 -0.0781,0 z m -3.74218,5.8594 -13.70313,14.7656 a 2.0002,2.0002 0 0 1 1.14063,0.9609 l 13.10156,-14.1093 -0.53906,-1.6172 z m -24.64844,7.789 -4.14844,5.9219 a 0.750075,0.750075 0 0 0 0.48438,1.1641 l 6.49219,1.1797 c -0.0773,-0.1286 -0.14994,-0.2574 -0.20313,-0.3829 a 2.0002,2.0002 0 0 1 -0.0547,-0.1484 l -0.36718,-1.0937 -4.44532,-0.8125 2.82813,-4.0469 -0.51563,-1.5469 c -0.0266,-0.08 -0.0492,-0.1558 -0.0703,-0.2344 z"
       inkscape:connector-curvature="0" />
  </g>
  <g
     inkscape:groupmode="layer"
     id="layer5"
     inkscape:label="hookem-2"
     transform="translate(0,-340)" />
  <g
     inkscape:groupmode="layer"
     id="layer4"
     inkscape:label="hookem"
     transform="translate(0,-340)">
    <path
       style="font-size:medium;font-style:normal;font-variant:normal;font-weight:normal;font-stretch:normal;text-indent:0;text-align:start;text-decoration:none;line-height:normal;letter-spacing:normal;word-spacing:normal;text-transform:none;direction:ltr;block-progression:tb;writing-mode:lr-tb;text-anchor:start;baseline-shift:baseline;color:#000000;fill:#ff7f2a;fill-opacity:1;stroke:none;stroke-width:8;marker:none;visibility:visible;display:inline;overflow:visible;enable-background:accumulate;font-family:Sans;-inkscape-font-specification:Sans"
       d="m 44.607367,349.5785 c -0.42172,0.0104 -0.83903,0.10735 -1.22657,0.27344 -1.55015,0.66435 -2.58742,2.63615 -1.83593,4.89062 l 2.96093,8.89063 c -0.25415,-0.0495 -0.50701,-0.0859 -0.76562,-0.0859 -0.8773,0 -1.73818,0.30176 -2.5,0.83594 -0.76201,-0.5347 -1.62164,-0.83496 -2.5,-0.83594 -1.10196,-10e-4 -2.18207,0.47003 -3.0625,1.29688 l -4.24219,-12.73438 c -0.35475,-1.06426 -1.12565,-1.82906 -2.00781,-2.16406 -0.88216,-0.335 -1.83507,-0.28543 -2.67969,0.0469 -1.68923,0.66462 -2.97359,2.68861 -2.20312,5 l 4.33594,13.01563 -2.71094,3.84375 c -0.48384,0.68543 -0.66141,1.53139 -0.375,2.39062 l 2.5,7.5 c 0.007,0.0237 0.0148,0.0472 0.0234,0.0703 0.279,0.65798 0.90826,1.31513 1.74218,1.46875 l 4.75,0.875 c 0.53188,0.14293 1.14399,-0.24383 1.24328,-0.78555 0.0993,-0.54173 -0.3359,-1.12042 -0.8839,-1.17539 l -4.75,-0.875 c -0.15294,-0.0282 -0.14508,-0.0232 -0.25781,-0.28906 l -2.47657,-7.42188 c -0.0342,-0.10253 0.0242,-0.46657 0.125,-0.60937 l 1.85938,-2.63282 1.875,5.625 c 0.13217,0.5344 0.76625,0.883 1.28828,0.70827 0.52203,-0.17473 0.81849,-0.8348 0.60234,-1.34108 l -7,-21 c -0.47953,-1.4386 0.19444,-2.16461 1.04688,-2.5 0.42622,-0.16769 0.88997,-0.18063 1.24219,-0.0469 0.35221,0.13375 0.6334,0.36895 0.82031,0.92968 l 5,15 c 0.15259,0.44149 0.64681,0.736 1.10772,0.66011 0.46091,-0.0759 0.83461,-0.51331 0.83759,-0.98042 0,-0.52863 0.0721,-0.65402 0.46094,-1.04687 0.58774,-0.59389 1.1914,-0.82878 1.78125,-0.82813 0.58984,7.5e-4 1.20401,0.24308 1.79687,0.83594 0.3708,0.37477 1.05108,0.37477 1.42188,0 0.59286,-0.59287 1.19977,-0.83594 1.78906,-0.83594 0.58928,0 1.1962,0.24307 1.78906,0.83594 0.31556,0.31595 0.85346,0.37878 1.23334,0.14404 0.37987,-0.23474 0.56432,-0.74391 0.42291,-1.16748 l -3.75,-11.25 c -0.49851,-1.49553 0.0892,-2.14873 0.72656,-2.42187 0.31868,-0.13658 0.66345,-0.14363 0.9375,-0.0312 0.27405,0.11238 0.52437,0.3231 0.69532,0.83593 l 4.5,13.5 5,15 c 0.13217,0.5344 0.76625,0.883 1.28828,0.70827 0.52203,-0.17473 0.81849,-0.8348 0.60234,-1.34108 l -5,-15 -4.5,-13.5 c -0.32906,-0.98717 -1.01624,-1.71394 -1.82812,-2.04687 -0.40595,-0.16647 -0.82828,-0.24478 -1.25,-0.23438 z"
       id="path3836"
       inkscape:connector-curvature="0"
       sodipodi:nodetypes="csccsccccsscccsccscscscccccsccssscscscccscscssssccsccssc" />
    <g
       id="g3077"
       transform="translate(0,-22)">
      <path
         d="m 82.713713,389.922 -9.385197,0 0,-14.0976 3.465,0 0,11.0088 5.920197,0 0,3.0888"
         style="font-size:19.79999924px;font-style:normal;font-variant:normal;font-weight:normal;font-stretch:normal;text-align:center;line-height:125%;letter-spacing:0px;word-spacing:0px;text-anchor:middle;fill:#ff7f2a;fill-opacity:1;stroke:none;font-family:DIN;-inkscape-font-specification:DIN"
         id="path4018"
         inkscape:connector-curvature="0" />
      <path
         d="m 93.306583,384.5958 c -1e-5,1.056 -0.0858,1.881 -0.2574,2.475 -0.15841,0.594 -0.46201,1.1286 -0.9108,1.6038 -0.84481,0.9108 -1.9866,1.3662 -3.4254,1.3662 -1.4388,0 -2.5806,-0.4554 -3.4254,-1.3662 -0.4488,-0.4752 -0.759,-1.0098 -0.9306,-1.6038 -0.1584,-0.594 -0.2376,-1.419 -0.2376,-2.475 0,-1.056 0.0792,-1.88099 0.2376,-2.475 0.1716,-0.59399 0.4818,-1.12859 0.9306,-1.6038 0.8448,-0.91079 1.9866,-1.36619 3.4254,-1.3662 1.4388,10e-6 2.58059,0.45541 3.4254,1.3662 0.44879,0.47521 0.75239,1.00981 0.9108,1.6038 0.17159,0.59401 0.25739,1.419 0.2574,2.475 m -3.2472,0 c 0,-0.792 -0.0462,-1.33979 -0.1386,-1.6434 -0.198,-0.58079 -0.6006,-0.87119 -1.2078,-0.8712 -0.6072,10e-6 -1.0098,0.29041 -1.2078,0.8712 -0.0924,0.30361 -0.1386,0.8514 -0.1386,1.6434 0,0.792 0.0462,1.3398 0.1386,1.6434 0.198,0.5808 0.6006,0.8712 1.2078,0.8712 0.6072,0 1.0098,-0.2904 1.2078,-0.8712 0.0924,-0.3036 0.1386,-0.8514 0.1386,-1.6434"
         style="font-size:19.79999924px;font-style:normal;font-variant:normal;font-weight:normal;font-stretch:normal;text-align:center;line-height:125%;letter-spacing:0px;word-spacing:0px;text-anchor:middle;fill:#ff7f2a;fill-opacity:1;stroke:none;font-family:DIN;-inkscape-font-specification:DIN"
         id="path4020"
         inkscape:connector-curvature="0" />
      <path
         d="m 104.50905,389.922 -3.2472,0 0,-6.3756 c -10e-6,-0.54119 -0.16501,-0.93719 -0.495,-1.188 -0.22441,-0.18479 -0.49501,-0.27719 -0.811797,-0.2772 -0.3168,10e-6 -0.5874,0.0924 -0.8118,0.2772 -0.33,0.25081 -0.495,0.64681 -0.495,1.188 l 0,6.3756 -3.2472,0 0,-10.6524 3.168,0 0,0.8712 c 0.66,-0.65999 1.484997,-0.98999 2.474997,-0.99 0.98999,10e-6 1.78859,0.30361 2.3958,0.9108 0.71279,0.71281 1.06919,1.72921 1.0692,3.0492 l 0,6.8112"
         style="font-size:19.79999924px;font-style:normal;font-variant:normal;font-weight:normal;font-stretch:normal;text-align:center;line-height:125%;letter-spacing:0px;word-spacing:0px;text-anchor:middle;fill:#ff7f2a;fill-opacity:1;stroke:none;font-family:DIN;-inkscape-font-specification:DIN"
         id="path4022"
         inkscape:connector-curvature="0" />
      <path
         d="m 115.50052,389.1498 c -10e-6,1.2672 -0.44221,2.3034 -1.3266,3.1086 -0.8844,0.81839 -2.046,1.22759 -3.4848,1.2276 -1.7424,-10e-6 -3.0756,-0.46201 -3.9996,-1.386 l 2.0196,-2.0196 c 0.4488,0.4488 1.056,0.6732 1.8216,0.6732 1.1484,0 1.7226,-0.5412 1.7226,-1.6236 l 0,-0.7722 c -0.594,0.594 -1.3596,0.891 -2.2968,0.891 -1.0296,0 -1.8612,-0.3168 -2.4948,-0.9504 -0.4488,-0.4488 -0.7326,-1.0098 -0.8514,-1.683 -0.0924,-0.462 -0.1386,-1.2672 -0.1386,-2.4156 0,-1.14839 0.0462,-1.95359 0.1386,-2.4156 0.1188,-0.67319 0.4026,-1.23419 0.8514,-1.683 0.6336,-0.63359 1.4718,-0.95039 2.5146,-0.9504 0.924,10e-6 1.716,0.33001 2.376,0.99 l 0,-0.8712 3.1482,0 0,9.8802 m -3.2472,-4.95 c 0,-0.6864 -0.0594,-1.17479 -0.1782,-1.4652 -0.198,-0.43559 -0.561,-0.65339 -1.089,-0.6534 -0.528,10e-6 -0.8844,0.21781 -1.0692,0.6534 -0.132,0.29041 -0.198,0.7788 -0.198,1.4652 0,0.6864 0.066,1.1748 0.198,1.4652 0.1848,0.4356 0.5412,0.6534 1.0692,0.6534 0.528,0 0.891,-0.2178 1.089,-0.6534 0.1188,-0.2904 0.1782,-0.7788 0.1782,-1.4652"
         style="font-size:19.79999924px;font-style:normal;font-variant:normal;font-weight:normal;font-stretch:normal;text-align:center;line-height:125%;letter-spacing:0px;word-spacing:0px;text-anchor:middle;fill:#ff7f2a;fill-opacity:1;stroke:none;font-family:DIN;-inkscape-font-specification:DIN"
         id="path4024"
         inkscape:connector-curvature="0" />
      <path
         d="m 126.93595,389.922 -3.2472,0 0,-6.4548 c 0,-0.50159 -0.1584,-0.87779 -0.4752,-1.1286 -0.2244,-0.17159 -0.4818,-0.25739 -0.7722,-0.2574 -0.2904,10e-6 -0.5478,0.0858 -0.7722,0.2574 -0.3168,0.25081 -0.4752,0.62701 -0.4752,1.1286 l 0,6.4548 -3.24719,0 0,-14.0976 3.24719,0 0,4.3164 c 0.66,-0.65999 1.4388,-0.98999 2.3364,-0.99 1.1088,10e-6 1.9668,0.37621 2.574,1.1286 0.55439,0.68641 0.83159,1.59721 0.8316,2.7324 l 0,6.9102"
         style="font-size:19.79999924px;font-style:normal;font-variant:normal;font-weight:normal;font-stretch:normal;text-align:center;line-height:125%;letter-spacing:0px;word-spacing:0px;text-anchor:middle;fill:#ff7f2a;fill-opacity:1;stroke:none;font-family:DIN;-inkscape-font-specification:DIN"
         id="path4026"
         inkscape:connector-curvature="0" />
      <path
         d="m 138.08861,384.5958 c -10e-6,1.056 -0.0858,1.881 -0.2574,2.475 -0.15841,0.594 -0.46201,1.1286 -0.9108,1.6038 -0.84481,0.9108 -1.98661,1.3662 -3.4254,1.3662 -1.4388,0 -2.5806,-0.4554 -3.4254,-1.3662 -0.4488,-0.4752 -0.759,-1.0098 -0.9306,-1.6038 -0.1584,-0.594 -0.2376,-1.419 -0.2376,-2.475 0,-1.056 0.0792,-1.88099 0.2376,-2.475 0.1716,-0.59399 0.4818,-1.12859 0.9306,-1.6038 0.8448,-0.91079 1.9866,-1.36619 3.4254,-1.3662 1.43879,10e-6 2.58059,0.45541 3.4254,1.3662 0.44879,0.47521 0.75239,1.00981 0.9108,1.6038 0.17159,0.59401 0.25739,1.419 0.2574,2.475 m -3.2472,0 c -1e-5,-0.792 -0.0462,-1.33979 -0.1386,-1.6434 -0.19801,-0.58079 -0.6006,-0.87119 -1.2078,-0.8712 -0.6072,10e-6 -1.0098,0.29041 -1.2078,0.8712 -0.0924,0.30361 -0.1386,0.8514 -0.1386,1.6434 0,0.792 0.0462,1.3398 0.1386,1.6434 0.198,0.5808 0.6006,0.8712 1.2078,0.8712 0.6072,0 1.00979,-0.2904 1.2078,-0.8712 0.0924,-0.3036 0.13859,-0.8514 0.1386,-1.6434"
         style="font-size:19.79999924px;font-style:normal;font-variant:normal;font-weight:normal;font-stretch:normal;text-align:center;line-height:125%;letter-spacing:0px;word-spacing:0px;text-anchor:middle;fill:#ff7f2a;fill-opacity:1;stroke:none;font-family:DIN;-inkscape-font-specification:DIN"
         id="path4028"
         inkscape:connector-curvature="0" />
      <path
         d="m 148.36048,380.1408 -2.4552,2.4948 c -0.3696,-0.36959 -0.759,-0.55439 -1.1682,-0.5544 -0.3036,10e-6 -0.5742,0.0924 -0.8118,0.2772 -0.33,0.26401 -0.495,0.66001 -0.495,1.188 l 0,6.3756 -3.2472,0 0,-10.6524 3.168,0 0,0.8712 c 0.66,-0.65999 1.4982,-0.98999 2.5146,-0.99 1.0032,10e-6 1.83479,0.33001 2.4948,0.99"
         style="font-size:19.79999924px;font-style:normal;font-variant:normal;font-weight:normal;font-stretch:normal;text-align:center;line-height:125%;letter-spacing:0px;word-spacing:0px;text-anchor:middle;fill:#ff7f2a;fill-opacity:1;stroke:none;font-family:DIN;-inkscape-font-specification:DIN"
         id="path4030"
         inkscape:connector-curvature="0" />
      <path
         d="m 158.68835,389.922 -3.2472,0 0,-6.3756 c -1e-5,-0.54119 -0.16501,-0.93719 -0.495,-1.188 -0.22441,-0.18479 -0.49501,-0.27719 -0.8118,-0.2772 -0.31681,10e-6 -0.58741,0.0924 -0.8118,0.2772 -0.33001,0.25081 -0.49501,0.64681 -0.495,1.188 l 0,6.3756 -3.2472,0 0,-10.6524 3.168,0 0,0.8712 c 0.65999,-0.65999 1.48499,-0.98999 2.475,-0.99 0.98999,10e-6 1.78859,0.30361 2.3958,0.9108 0.71279,0.71281 1.06919,1.72921 1.0692,3.0492 l 0,6.8112"
         style="font-size:19.79999924px;font-style:normal;font-variant:normal;font-weight:normal;font-stretch:normal;text-align:center;line-height:125%;letter-spacing:0px;word-spacing:0px;text-anchor:middle;fill:#ff7f2a;fill-opacity:1;stroke:none;font-family:DIN;-inkscape-font-specification:DIN"
         id="path4032"
         inkscape:connector-curvature="0" />
    </g>
    <g
       id="g3062"
       transform="translate(-92.305294,0)">
      <path
         d="m 176.16741,385.764 c -1e-5,1.3068 -0.40921,2.3298 -1.2276,3.069 -0.81841,0.726 -1.8744,1.089 -3.168,1.089 l -6.138,0 0,-14.0976 5.841,0 c 1.4388,10e-6 2.54759,0.36961 3.3264,1.1088 0.77879,0.73921 1.16819,1.72921 1.1682,2.97 -1e-5,1.16161 -0.51481,2.09221 -1.5444,2.7918 1.16159,0.726 1.74239,1.749 1.7424,3.069 m -3.663,-5.6826 c 0,-0.76559 -0.4158,-1.14839 -1.2474,-1.1484 l -2.1582,0 0,2.2968 2.1582,0 c 0.8316,10e-6 1.2474,-0.38279 1.2474,-1.1484 m 0.198,5.4846 c 0,-0.8184 -0.4224,-1.2276 -1.2672,-1.2276 l -2.3364,0 0,2.475 2.3364,0 c 0.8448,0 1.2672,-0.4158 1.2672,-1.2474"
         style="font-size:19.79999924px;font-style:normal;font-variant:normal;font-weight:normal;font-stretch:normal;text-align:center;line-height:125%;letter-spacing:0px;word-spacing:0px;text-anchor:middle;fill:#ff7f2a;fill-opacity:1;stroke:none;font-family:DIN;-inkscape-font-specification:DIN"
         id="path4034"
         inkscape:connector-curvature="0" />
      <path
         d="m 181.95582,376.8144 c -10e-6,0.54121 -0.19801,1.00981 -0.594,1.4058 -0.3828,0.38281 -0.8448,0.57421 -1.386,0.5742 -0.5412,1e-5 -1.0098,-0.19139 -1.4058,-0.5742 -0.3828,-0.39599 -0.5742,-0.86459 -0.5742,-1.4058 0,-0.54119 0.1914,-1.00319 0.5742,-1.386 0.396,-0.39599 0.8646,-0.59399 1.4058,-0.594 0.5412,10e-6 1.0032,0.19801 1.386,0.594 0.39599,0.38281 0.59399,0.84481 0.594,1.386 m -0.3564,13.1076 -3.2472,0 0,-10.2366 3.2472,0 0,10.2366"
         style="font-size:19.79999924px;font-style:normal;font-variant:normal;font-weight:normal;font-stretch:normal;text-align:center;line-height:125%;letter-spacing:0px;word-spacing:0px;text-anchor:middle;fill:#ff7f2a;fill-opacity:1;stroke:none;font-family:DIN;-inkscape-font-specification:DIN"
         id="path4036"
         inkscape:connector-curvature="0" />
      <path
         d="m 194.15479,389.922 -4.0194,0 -2.2176,-3.9006 -0.6336,0.693 0,3.2076 -3.2472,0 0,-14.0976 3.2472,0 0,7.1676 2.871,-3.7224 3.9006,0 -3.9204,4.4154 4.0194,6.237"
         style="font-size:19.79999924px;font-style:normal;font-variant:normal;font-weight:normal;font-stretch:normal;text-align:center;line-height:125%;letter-spacing:0px;word-spacing:0px;text-anchor:middle;fill:#ff7f2a;fill-opacity:1;stroke:none;font-family:DIN;-inkscape-font-specification:DIN"
         id="path4038"
         inkscape:connector-curvature="0" />
      <path
         d="m 204.45604,385.6452 -6.3756,0 c 0,0.462 0.165,0.8448 0.495,1.1484 0.3432,0.3432 0.8052,0.5148 1.386,0.5148 0.8712,0 1.6038,-0.297 2.1978,-0.891 l 1.9404,1.9404 c -0.58081,0.5808 -1.1616,0.9966 -1.7424,1.2474 -0.66,0.2904 -1.4586,0.4356 -2.3958,0.4356 -3.3792,0 -5.0688,-1.815 -5.0688,-5.445 0,-1.70279 0.4488,-3.04919 1.3464,-4.0392 0.858,-0.93719 1.9998,-1.40579 3.4254,-1.4058 1.4916,10e-6 2.6796,0.49501 3.564,1.485 0.81839,0.92401 1.22759,2.11201 1.2276,3.564 l 0,1.4454 m -3.2076,-2.1582 c 0,-0.50159 -0.1452,-0.90419 -0.4356,-1.2078 -0.2772,-0.30359 -0.66,-0.45539 -1.1484,-0.4554 -0.6864,10e-6 -1.155,0.27721 -1.4058,0.8316 -0.1188,0.26401 -0.1782,0.54121 -0.1782,0.8316 l 3.168,0"
         style="font-size:19.79999924px;font-style:normal;font-variant:normal;font-weight:normal;font-stretch:normal;text-align:center;line-height:125%;letter-spacing:0px;word-spacing:0px;text-anchor:middle;fill:#ff7f2a;fill-opacity:1;stroke:none;font-family:DIN;-inkscape-font-specification:DIN"
         id="path4040"
         inkscape:connector-curvature="0" />
      <path
         d="m 219.82579,388.4766 c -1.04281,1.0428 -2.34301,1.5642 -3.9006,1.5642 -1.55761,0 -2.86441,-0.528 -3.9204,-1.584 -0.66001,-0.66 -1.0824,-1.5114 -1.2672,-2.5542 -0.1056,-0.5808 -0.1584,-1.5906 -0.1584,-3.0294 0,-1.43879 0.0528,-2.44859 0.1584,-3.0294 0.1848,-1.04279 0.60719,-1.89419 1.2672,-2.5542 1.05599,-1.05599 2.36279,-1.58399 3.9204,-1.584 1.55759,10e-6 2.85779,0.52141 3.9006,1.5642 l -2.2968,2.2968 c -0.51481,-0.51479 -1.04941,-0.77219 -1.6038,-0.7722 -0.59401,1e-5 -1.04281,0.19801 -1.3464,0.594 -0.35641,0.46201 -0.53461,1.62361 -0.5346,3.4848 -10e-6,1.8612 0.17819,3.0228 0.5346,3.4848 0.30359,0.396 0.75239,0.594 1.3464,0.594 0.55439,0 1.08899,-0.2574 1.6038,-0.7722 l 2.2968,2.2968"
         style="font-size:19.79999924px;font-style:normal;font-variant:normal;font-weight:normal;font-stretch:normal;text-align:center;line-height:125%;letter-spacing:0px;word-spacing:0px;text-anchor:middle;fill:#ff7f2a;fill-opacity:1;stroke:none;font-family:DIN;-inkscape-font-specification:DIN"
         id="path4042"
         inkscape:connector-curvature="0" />
      <path
         d="m 230.47571,384.5958 c -1e-5,1.056 -0.0858,1.881 -0.2574,2.475 -0.15841,0.594 -0.46201,1.1286 -0.9108,1.6038 -0.84481,0.9108 -1.98661,1.3662 -3.4254,1.3662 -1.4388,0 -2.5806,-0.4554 -3.4254,-1.3662 -0.4488,-0.4752 -0.759,-1.0098 -0.9306,-1.6038 -0.1584,-0.594 -0.2376,-1.419 -0.2376,-2.475 0,-1.056 0.0792,-1.88099 0.2376,-2.475 0.1716,-0.59399 0.4818,-1.12859 0.9306,-1.6038 0.8448,-0.91079 1.9866,-1.36619 3.4254,-1.3662 1.43879,10e-6 2.58059,0.45541 3.4254,1.3662 0.44879,0.47521 0.75239,1.00981 0.9108,1.6038 0.17159,0.59401 0.25739,1.419 0.2574,2.475 m -3.2472,0 c -1e-5,-0.792 -0.0462,-1.33979 -0.1386,-1.6434 -0.19801,-0.58079 -0.6006,-0.87119 -1.2078,-0.8712 -0.6072,10e-6 -1.0098,0.29041 -1.2078,0.8712 -0.0924,0.30361 -0.1386,0.8514 -0.1386,1.6434 0,0.792 0.0462,1.3398 0.1386,1.6434 0.198,0.5808 0.6006,0.8712 1.2078,0.8712 0.6072,0 1.00979,-0.2904 1.2078,-0.8712 0.0924,-0.3036 0.13859,-0.8514 0.1386,-1.6434"
         style="font-size:19.79999924px;font-style:normal;font-variant:normal;font-weight:normal;font-stretch:normal;text-align:center;line-height:125%;letter-spacing:0px;word-spacing:0px;text-anchor:middle;fill:#ff7f2a;fill-opacity:1;stroke:none;font-family:DIN;-inkscape-font-specification:DIN"
         id="path4044"
         inkscape:connector-curvature="0" />
      <path
         d="m 240.90598,389.922 -3.168,0 0,-0.8712 c -0.6468,0.6468 -1.4388,0.9702 -2.376,0.9702 -1.0692,0 -1.9206,-0.3102 -2.5542,-0.9306 -0.6204,-0.6336 -0.9306,-1.4718 -0.9306,-2.5146 0,-0.8712 0.2904,-1.584 0.8712,-2.1384 0.6468,-0.6336 1.5642,-0.9504 2.7522,-0.9504 l 2.1582,0 0,-0.2772 c 0,-0.88439 -0.5346,-1.32659 -1.6038,-1.3266 -0.66,1e-5 -1.2276,0.23761 -1.7028,0.7128 l -2.0196,-2.0196 c 0.5412,-0.54119 1.0956,-0.91079 1.6632,-1.1088 0.5676,-0.21119 1.3068,-0.31679 2.2176,-0.3168 3.1284,10e-6 4.69259,1.28701 4.6926,3.861 l 0,6.9102 m -3.2472,-3.9996 0,-0.2772 -1.6434,0 c -0.6864,0 -1.0296,0.2838 -1.0296,0.8514 0,0.594 0.3564,0.891 1.0692,0.891 0.5808,0 1.0098,-0.132 1.287,-0.396 0.2112,-0.198 0.3168,-0.5544 0.3168,-1.0692"
         style="font-size:19.79999924px;font-style:normal;font-variant:normal;font-weight:normal;font-stretch:normal;text-align:center;line-height:125%;letter-spacing:0px;word-spacing:0px;text-anchor:middle;fill:#ff7f2a;fill-opacity:1;stroke:none;font-family:DIN;-inkscape-font-specification:DIN"
         id="path4046"
         inkscape:connector-curvature="0" />
      <path
         d="m 248.09648,389.922 -1.7226,0 c -1.0956,0 -1.9404,-0.3432 -2.5344,-1.0296 -0.5148,-0.5808 -0.7722,-1.287 -0.7722,-2.1186 l 0,-10.9494 3.2472,0 0,10.7118 c 0,0.4356 0.2178,0.6534 0.6534,0.6534 l 1.1286,0 0,2.7324"
         style="font-size:19.79999924px;font-style:normal;font-variant:normal;font-weight:normal;font-stretch:normal;text-align:center;line-height:125%;letter-spacing:0px;word-spacing:0px;text-anchor:middle;fill:#ff7f2a;fill-opacity:1;stroke:none;font-family:DIN;-inkscape-font-specification:DIN"
         id="path4048"
         inkscape:connector-curvature="0" />
      <path
         d="m 253.53746,376.8144 c 0,0.54121 -0.198,1.00981 -0.594,1.4058 -0.3828,0.38281 -0.8448,0.57421 -1.386,0.5742 -0.5412,1e-5 -1.0098,-0.19139 -1.4058,-0.5742 -0.3828,-0.39599 -0.5742,-0.86459 -0.5742,-1.4058 0,-0.54119 0.1914,-1.00319 0.5742,-1.386 0.396,-0.39599 0.8646,-0.59399 1.4058,-0.594 0.5412,10e-6 1.0032,0.19801 1.386,0.594 0.396,0.38281 0.594,0.84481 0.594,1.386 m -0.3564,13.1076 -3.2472,0 0,-10.2366 3.2472,0 0,10.2366"
         style="font-size:19.79999924px;font-style:normal;font-variant:normal;font-weight:normal;font-stretch:normal;text-align:center;line-height:125%;letter-spacing:0px;word-spacing:0px;text-anchor:middle;fill:#ff7f2a;fill-opacity:1;stroke:none;font-family:DIN;-inkscape-font-specification:DIN"
         id="path4050"
         inkscape:connector-curvature="0" />
      <path
         d="m 260.78643,389.922 -1.6236,0 c -1.0956,0 -1.9404,-0.3432 -2.5344,-1.0296 -0.5148,-0.5808 -0.7722,-1.287 -0.7722,-2.1186 l 0,-4.5936 -0.9702,0 0,-2.4948 0.9702,0 0,-3.0492 3.2472,0 0,3.0492 1.683,0 0,2.4948 -1.683,0 0,4.356 c 0,0.4356 0.2178,0.6534 0.6534,0.6534 l 1.0296,0 0,2.7324"
         style="font-size:19.79999924px;font-style:normal;font-variant:normal;font-weight:normal;font-stretch:normal;text-align:center;line-height:125%;letter-spacing:0px;word-spacing:0px;text-anchor:middle;fill:#ff7f2a;fill-opacity:1;stroke:none;font-family:DIN;-inkscape-font-specification:DIN"
         id="path4052"
         inkscape:connector-curvature="0" />
      <path
         d="m 266.41519,376.8144 c 0,0.54121 -0.198,1.00981 -0.594,1.4058 -0.3828,0.38281 -0.8448,0.57421 -1.386,0.5742 -0.5412,1e-5 -1.0098,-0.19139 -1.4058,-0.5742 -0.3828,-0.39599 -0.5742,-0.86459 -0.5742,-1.4058 0,-0.54119 0.1914,-1.00319 0.5742,-1.386 0.396,-0.39599 0.8646,-0.59399 1.4058,-0.594 0.5412,10e-6 1.0032,0.19801 1.386,0.594 0.396,0.38281 0.594,0.84481 0.594,1.386 m -0.3564,13.1076 -3.2472,0 0,-10.2366 3.2472,0 0,10.2366"
         style="font-size:19.79999924px;font-style:normal;font-variant:normal;font-weight:normal;font-stretch:normal;text-align:center;line-height:125%;letter-spacing:0px;word-spacing:0px;text-anchor:middle;fill:#ff7f2a;fill-opacity:1;stroke:none;font-family:DIN;-inkscape-font-specification:DIN"
         id="path4054"
         inkscape:connector-curvature="0" />
      <path
         d="m 277.30736,384.5958 c -1e-5,1.056 -0.0858,1.881 -0.2574,2.475 -0.15841,0.594 -0.46201,1.1286 -0.9108,1.6038 -0.84481,0.9108 -1.98661,1.3662 -3.4254,1.3662 -1.4388,0 -2.5806,-0.4554 -3.4254,-1.3662 -0.4488,-0.4752 -0.759,-1.0098 -0.9306,-1.6038 -0.1584,-0.594 -0.2376,-1.419 -0.2376,-2.475 0,-1.056 0.0792,-1.88099 0.2376,-2.475 0.1716,-0.59399 0.4818,-1.12859 0.9306,-1.6038 0.8448,-0.91079 1.9866,-1.36619 3.4254,-1.3662 1.43879,10e-6 2.58059,0.45541 3.4254,1.3662 0.44879,0.47521 0.75239,1.00981 0.9108,1.6038 0.17159,0.59401 0.25739,1.419 0.2574,2.475 m -3.2472,0 c -10e-6,-0.792 -0.0462,-1.33979 -0.1386,-1.6434 -0.19801,-0.58079 -0.6006,-0.87119 -1.2078,-0.8712 -0.6072,10e-6 -1.0098,0.29041 -1.2078,0.8712 -0.0924,0.30361 -0.1386,0.8514 -0.1386,1.6434 0,0.792 0.0462,1.3398 0.1386,1.6434 0.198,0.5808 0.6006,0.8712 1.2078,0.8712 0.6072,0 1.00979,-0.2904 1.2078,-0.8712 0.0924,-0.3036 0.13859,-0.8514 0.1386,-1.6434"
         style="font-size:19.79999924px;font-style:normal;font-variant:normal;font-weight:normal;font-stretch:normal;text-align:center;line-height:125%;letter-spacing:0px;word-spacing:0px;text-anchor:middle;fill:#ff7f2a;fill-opacity:1;stroke:none;font-family:DIN;-inkscape-font-specification:DIN"
         id="path4056"
         inkscape:connector-curvature="0" />
      <path
         d="m 288.50982,389.922 -3.2472,0 0,-6.3756 c -1e-5,-0.54119 -0.16501,-0.93719 -0.495,-1.188 -0.22441,-0.18479 -0.49501,-0.27719 -0.8118,-0.2772 -0.31681,10e-6 -0.58741,0.0924 -0.8118,0.2772 -0.33001,0.25081 -0.49501,0.64681 -0.495,1.188 l 0,6.3756 -3.2472,0 0,-10.6524 3.168,0 0,0.8712 c 0.65999,-0.65999 1.48499,-0.98999 2.475,-0.99 0.98999,10e-6 1.78859,0.30361 2.3958,0.9108 0.71279,0.71281 1.06919,1.72921 1.0692,3.0492 l 0,6.8112"
         style="font-size:19.79999924px;font-style:normal;font-variant:normal;font-weight:normal;font-stretch:normal;text-align:center;line-height:125%;letter-spacing:0px;word-spacing:0px;text-anchor:middle;fill:#ff7f2a;fill-opacity:1;stroke:none;font-family:DIN;-inkscape-font-specification:DIN"
         id="path4058"
         inkscape:connector-curvature="0" />
    </g>
  </g>
</svg>
