<?xml version="1.0" encoding="UTF-8" standalone="no"?>
<!-- Created with Inkscape (http://www.inkscape.org/) -->

<svg
   xmlns:dc="http://purl.org/dc/elements/1.1/"
   xmlns:cc="http://creativecommons.org/ns#"
   xmlns:rdf="http://www.w3.org/1999/02/22-rdf-syntax-ns#"
   xmlns:svg="http://www.w3.org/2000/svg"
   xmlns="http://www.w3.org/2000/svg"
   xmlns:sodipodi="http://sodipodi.sourceforge.net/DTD/sodipodi-0.dtd"
   xmlns:inkscape="http://www.inkscape.org/namespaces/inkscape"
   width="250"
   height="220"
   id="svg2"
   version="1.1"
   inkscape:version="0.48.4 r9939"
   sodipodi:docname="logo.svg">
  <defs
     id="defs4" />
  <sodipodi:namedview
     id="base"
     pagecolor="#ffffff"
     bordercolor="#666666"
     borderopacity="1.0"
     inkscape:pageopacity="0.0"
     inkscape:pageshadow="2"
     inkscape:zoom="1.4"
     inkscape:cx="150.34399"
     inkscape:cy="122.68683"
     inkscape:document-units="px"
     inkscape:current-layer="layer4"
     showgrid="false"
     inkscape:window-width="1600"
     inkscape:window-height="876"
     inkscape:window-x="0"
     inkscape:window-y="24"
     inkscape:window-maximized="1">
    <inkscape:grid
       type="xygrid"
       id="grid2985"
       empspacing="5"
       dotted="true"
       visible="true"
       enabled="true"
       snapvisiblegridlinesonly="true" />
  </sodipodi:namedview>
  <metadata
     id="metadata7">
    <rdf:RDF>
      <cc:Work
         rdf:about="">
        <dc:format>image/svg+xml</dc:format>
        <dc:type
           rdf:resource="http://purl.org/dc/dcmitype/StillImage" />
        <dc:title />
      </cc:Work>
    </rdf:RDF>
  </metadata>
  <g
     inkscape:label="frame"
     inkscape:groupmode="layer"
     id="layer1"
     transform="translate(0,-832.36218)">
    <path
       id="path3784"
       style="fill:none;stroke:#cccccc;stroke-width:6;stroke-linecap:round;stroke-linejoin:round;stroke-miterlimit:4;stroke-opacity:1;stroke-dasharray:none"
       d="m 90,922.40758 -35,50 55,10 65,-70 8,-17 10,0 c 9,0 9,12 0,12"
       inkscape:connector-curvature="0"
       sodipodi:nodetypes="cccccsc" />
    <path
       style="fill:none;stroke:#cccccc;stroke-width:8;stroke-linecap:round;stroke-linejoin:round;stroke-miterlimit:4;stroke-opacity:1;stroke-dasharray:none;stroke-dashoffset:0"
       d="m 230,972.40758 c 0,19.32992 -15.67003,35.00002 -35,35.00002 -19.32997,0 -35,-15.6701 -35,-35.00002 0,-19.32997 15.67003,-35 35,-35 19.32997,0 35,15.67003 35,35 z"
       id="path3761"
       inkscape:connector-curvature="0" />
    <path
       style="fill:none;stroke:#cccccc;stroke-width:8;stroke-linecap:round;stroke-linejoin:round;stroke-miterlimit:4;stroke-opacity:1;stroke-dasharray:none;stroke-dashoffset:0"
       d="m 89.45094,978.6166 c -2.93037,16.3681 -17.2399,28.791 -34.45094,28.791 -19.32997,0 -35,-15.6701 -35,-35.00002 0,-19.32997 15.67003,-35 35,-35 7.63909,0 14.70657,2.44732 20.46118,6.60068"
       id="path3757"
       inkscape:connector-curvature="0"
       sodipodi:nodetypes="csssc" />
  </g>
  <g
     inkscape:groupmode="layer"
     id="layer5"
     inkscape:label="hookem-2"
     transform="translate(0,-180)">
    <path
       sodipodi:nodetypes="cssssc"
       inkscape:connector-curvature="0"
       id="path3856"
       d="m 110,330.0454 -19,-3.5 c -1.97372,-0.36358 -3.21653,-1.65231 -4,-3.5 l -10,-30 c -0.64118,-1.92354 -0.16928,-4.34353 1,-6 l 12,-17"
       style="fill:none;stroke:#ffffff;stroke-width:16;stroke-linecap:round;stroke-linejoin:round;stroke-miterlimit:4;stroke-opacity:1;stroke-dasharray:none" />
    <path
       sodipodi:nodetypes="csscsccsscc"
       inkscape:connector-curvature="0"
       id="path3860"
       d="m 100,300.0454 -28,-84 c -5,-15 15.66667,-22 20,-9 l 20,60 c 0,-3 0.99618,-4.97524 3,-7 5.96872,-6.03112 14,-6 20,0 6,-6 14,-6 20,0 l -15,-45 c -5,-15 13,-21 17,-9 l 18,54 20,60"
       style="fill:none;stroke:#ffffff;stroke-width:16;stroke-linecap:round;stroke-linejoin:round;stroke-miterlimit:4;stroke-opacity:1;stroke-dasharray:none" />
  </g>
  <g
     inkscape:groupmode="layer"
     id="layer4"
     inkscape:label="hookem"
     transform="translate(0,-180)">
    <path
       style="fill:none;stroke:#ff7f2a;stroke-width:8;stroke-linecap:round;stroke-linejoin:round;stroke-miterlimit:4;stroke-opacity:1;stroke-dasharray:none"
       d="m 110,330.0454 -19,-3.5 c -1.97372,-0.36358 -3.21653,-1.65231 -4,-3.5 l -10,-30 c -0.64118,-1.92354 -0.16928,-4.34353 1,-6 l 12,-17"
       id="path3836"
       inkscape:connector-curvature="0"
       sodipodi:nodetypes="cssssc" />
    <path
       style="fill:none;stroke:#ff7f2a;stroke-width:8;stroke-linecap:round;stroke-linejoin:round;stroke-miterlimit:4;stroke-opacity:1;stroke-dasharray:none"
       d="m 100,300.0454 -28,-84 c -5,-15 15.66667,-22 20,-9 l 20,60 c 0,-3 0.99618,-4.97524 3,-7 5.96872,-6.03112 14,-6 20,0 6,-6 14,-6 20,0 l -15,-45 c -5,-15 13,-21 17,-9 l 18,54 20,60"
       id="path3832"
       inkscape:connector-curvature="0"
       sodipodi:nodetypes="csscsccsscc" />
    <g
       transform="translate(-73.999734,122.0454)"
       style="font-size:19.79999924px;font-style:normal;font-variant:normal;font-weight:normal;font-stretch:normal;text-align:center;line-height:125%;letter-spacing:0px;word-spacing:0px;text-anchor:middle;fill:#ff7f2a;fill-opacity:1;stroke:none;font-family:DIN;-inkscape-font-specification:DIN"
       id="flowRoot3863">
      <path
         d="m 100.93014,260.72888 -9.3852,0 0,-14.0976 3.465,0 0,11.0088 5.9202,0 0,3.0888"
         style="fill:#ff7f2a;-inkscape-font-specification:DIN"
         id="path4018"
         inkscape:connector-curvature="0" />
      <path
         d="m 111.56614,255.40268 c -1e-5,1.056 -0.0858,1.881 -0.2574,2.475 -0.15841,0.594 -0.46201,1.1286 -0.9108,1.6038 -0.84481,0.9108 -1.9866,1.3662 -3.4254,1.3662 -1.4388,0 -2.5806,-0.4554 -3.4254,-1.3662 -0.4488,-0.4752 -0.759,-1.0098 -0.9306,-1.6038 -0.1584,-0.594 -0.2376,-1.419 -0.2376,-2.475 0,-1.056 0.0792,-1.88099 0.2376,-2.475 0.1716,-0.59399 0.4818,-1.12859 0.9306,-1.6038 0.8448,-0.91079 1.9866,-1.36619 3.4254,-1.3662 1.4388,1e-5 2.58059,0.45541 3.4254,1.3662 0.44879,0.47521 0.75239,1.00981 0.9108,1.6038 0.17159,0.59401 0.25739,1.419 0.2574,2.475 m -3.2472,0 c 0,-0.792 -0.0462,-1.33979 -0.1386,-1.6434 -0.198,-0.58079 -0.6006,-0.87119 -1.2078,-0.8712 -0.6072,1e-5 -1.0098,0.29041 -1.2078,0.8712 -0.0924,0.30361 -0.1386,0.8514 -0.1386,1.6434 0,0.792 0.0462,1.3398 0.1386,1.6434 0.198,0.5808 0.6006,0.8712 1.2078,0.8712 0.6072,0 1.0098,-0.2904 1.2078,-0.8712 0.0924,-0.3036 0.1386,-0.8514 0.1386,-1.6434"
         style="fill:#ff7f2a;-inkscape-font-specification:DIN"
         id="path4020"
         inkscape:connector-curvature="0" />
      <path
         d="m 122.76861,260.72888 -3.2472,0 0,-6.3756 c -1e-5,-0.54119 -0.16501,-0.93719 -0.495,-1.188 -0.22441,-0.18479 -0.49501,-0.27719 -0.8118,-0.2772 -0.3168,1e-5 -0.5874,0.0924 -0.8118,0.2772 -0.33,0.25081 -0.495,0.64681 -0.495,1.188 l 0,6.3756 -3.2472,0 0,-10.6524 3.168,0 0,0.8712 c 0.66,-0.65999 1.485,-0.98999 2.475,-0.99 0.98999,1e-5 1.78859,0.30361 2.3958,0.9108 0.71279,0.71281 1.06919,1.72921 1.0692,3.0492 l 0,6.8112"
         style="fill:#ff7f2a;-inkscape-font-specification:DIN"
         id="path4022"
         inkscape:connector-curvature="0" />
      <path
         d="m 133.76008,259.95668 c -10e-6,1.2672 -0.44221,2.3034 -1.3266,3.1086 -0.8844,0.81839 -2.046,1.22759 -3.4848,1.2276 -1.7424,-1e-5 -3.0756,-0.46201 -3.9996,-1.386 l 2.0196,-2.0196 c 0.4488,0.4488 1.056,0.6732 1.8216,0.6732 1.1484,0 1.7226,-0.5412 1.7226,-1.6236 l 0,-0.7722 c -0.594,0.594 -1.3596,0.891 -2.2968,0.891 -1.0296,0 -1.8612,-0.3168 -2.4948,-0.9504 -0.4488,-0.4488 -0.7326,-1.0098 -0.8514,-1.683 -0.0924,-0.462 -0.1386,-1.2672 -0.1386,-2.4156 0,-1.14839 0.0462,-1.95359 0.1386,-2.4156 0.1188,-0.67319 0.4026,-1.23419 0.8514,-1.683 0.6336,-0.63359 1.4718,-0.95039 2.5146,-0.9504 0.924,1e-5 1.716,0.33001 2.376,0.99 l 0,-0.8712 3.1482,0 0,9.8802 m -3.2472,-4.95 c 0,-0.6864 -0.0594,-1.17479 -0.1782,-1.4652 -0.198,-0.43559 -0.561,-0.65339 -1.089,-0.6534 -0.528,1e-5 -0.8844,0.21781 -1.0692,0.6534 -0.132,0.29041 -0.198,0.7788 -0.198,1.4652 0,0.6864 0.066,1.1748 0.198,1.4652 0.1848,0.4356 0.5412,0.6534 1.0692,0.6534 0.528,0 0.891,-0.2178 1.089,-0.6534 0.1188,-0.2904 0.1782,-0.7788 0.1782,-1.4652"
         style="fill:#ff7f2a;-inkscape-font-specification:DIN"
         id="path4024"
         inkscape:connector-curvature="0" />
      <path
         d="m 145.19551,260.72888 -3.2472,0 0,-6.4548 c 0,-0.50159 -0.1584,-0.87779 -0.4752,-1.1286 -0.2244,-0.17159 -0.4818,-0.25739 -0.7722,-0.2574 -0.2904,1e-5 -0.5478,0.0858 -0.7722,0.2574 -0.3168,0.25081 -0.4752,0.62701 -0.4752,1.1286 l 0,6.4548 -3.24719,0 0,-14.0976 3.24719,0 0,4.3164 c 0.66,-0.65999 1.4388,-0.98999 2.3364,-0.99 1.1088,1e-5 1.9668,0.37621 2.574,1.1286 0.55439,0.68641 0.83159,1.59721 0.8316,2.7324 l 0,6.9102"
         style="fill:#ff7f2a;-inkscape-font-specification:DIN"
         id="path4026"
         inkscape:connector-curvature="0" />
      <path
         d="m 156.34817,255.40268 c -1e-5,1.056 -0.0858,1.881 -0.2574,2.475 -0.15841,0.594 -0.46201,1.1286 -0.9108,1.6038 -0.84481,0.9108 -1.98661,1.3662 -3.4254,1.3662 -1.4388,0 -2.5806,-0.4554 -3.4254,-1.3662 -0.4488,-0.4752 -0.759,-1.0098 -0.9306,-1.6038 -0.1584,-0.594 -0.2376,-1.419 -0.2376,-2.475 0,-1.056 0.0792,-1.88099 0.2376,-2.475 0.1716,-0.59399 0.4818,-1.12859 0.9306,-1.6038 0.8448,-0.91079 1.9866,-1.36619 3.4254,-1.3662 1.43879,1e-5 2.58059,0.45541 3.4254,1.3662 0.44879,0.47521 0.75239,1.00981 0.9108,1.6038 0.17159,0.59401 0.25739,1.419 0.2574,2.475 m -3.2472,0 c -1e-5,-0.792 -0.0462,-1.33979 -0.1386,-1.6434 -0.19801,-0.58079 -0.6006,-0.87119 -1.2078,-0.8712 -0.6072,1e-5 -1.0098,0.29041 -1.2078,0.8712 -0.0924,0.30361 -0.1386,0.8514 -0.1386,1.6434 0,0.792 0.0462,1.3398 0.1386,1.6434 0.198,0.5808 0.6006,0.8712 1.2078,0.8712 0.6072,0 1.00979,-0.2904 1.2078,-0.8712 0.0924,-0.3036 0.13859,-0.8514 0.1386,-1.6434"
         style="fill:#ff7f2a;-inkscape-font-specification:DIN"
         id="path4028"
         inkscape:connector-curvature="0" />
      <path
         d="m 166.62004,250.94768 -2.4552,2.4948 c -0.3696,-0.36959 -0.759,-0.55439 -1.1682,-0.5544 -0.3036,1e-5 -0.5742,0.0924 -0.8118,0.2772 -0.33,0.26401 -0.495,0.66001 -0.495,1.188 l 0,6.3756 -3.2472,0 0,-10.6524 3.168,0 0,0.8712 c 0.66,-0.65999 1.4982,-0.98999 2.5146,-0.99 1.0032,1e-5 1.83479,0.33001 2.4948,0.99"
         style="fill:#ff7f2a;-inkscape-font-specification:DIN"
         id="path4030"
         inkscape:connector-curvature="0" />
      <path
         d="m 176.94791,260.72888 -3.2472,0 0,-6.3756 c -10e-6,-0.54119 -0.16501,-0.93719 -0.495,-1.188 -0.22441,-0.18479 -0.49501,-0.27719 -0.8118,-0.2772 -0.31681,1e-5 -0.58741,0.0924 -0.8118,0.2772 -0.33001,0.25081 -0.49501,0.64681 -0.495,1.188 l 0,6.3756 -3.2472,0 0,-10.6524 3.168,0 0,0.8712 c 0.65999,-0.65999 1.48499,-0.98999 2.475,-0.99 0.98999,1e-5 1.78859,0.30361 2.3958,0.9108 0.71279,0.71281 1.06919,1.72921 1.0692,3.0492 l 0,6.8112"
         style="fill:#ff7f2a;-inkscape-font-specification:DIN"
         id="path4032"
         inkscape:connector-curvature="0" />
      <path
         d="m 194.42697,256.57088 c -1e-5,1.3068 -0.40921,2.3298 -1.2276,3.069 -0.81841,0.726 -1.8744,1.089 -3.168,1.089 l -6.138,0 0,-14.0976 5.841,0 c 1.4388,1e-5 2.54759,0.36961 3.3264,1.1088 0.77879,0.73921 1.16819,1.72921 1.1682,2.97 -1e-5,1.16161 -0.51481,2.09221 -1.5444,2.7918 1.16159,0.726 1.74239,1.749 1.7424,3.069 m -3.663,-5.6826 c 0,-0.76559 -0.4158,-1.14839 -1.2474,-1.1484 l -2.1582,0 0,2.2968 2.1582,0 c 0.8316,1e-5 1.2474,-0.38279 1.2474,-1.1484 m 0.198,5.4846 c 0,-0.8184 -0.4224,-1.2276 -1.2672,-1.2276 l -2.3364,0 0,2.475 2.3364,0 c 0.8448,0 1.2672,-0.4158 1.2672,-1.2474"
         style="fill:#ff7f2a;-inkscape-font-specification:DIN"
         id="path4034"
         inkscape:connector-curvature="0" />
      <path
         d="m 200.21538,247.62128 c -1e-5,0.54121 -0.19801,1.00981 -0.594,1.4058 -0.3828,0.38281 -0.8448,0.57421 -1.386,0.5742 -0.5412,1e-5 -1.0098,-0.19139 -1.4058,-0.5742 -0.3828,-0.39599 -0.5742,-0.86459 -0.5742,-1.4058 0,-0.54119 0.1914,-1.00319 0.5742,-1.386 0.396,-0.39599 0.8646,-0.59399 1.4058,-0.594 0.5412,1e-5 1.0032,0.19801 1.386,0.594 0.39599,0.38281 0.59399,0.84481 0.594,1.386 m -0.3564,13.1076 -3.2472,0 0,-10.2366 3.2472,0 0,10.2366"
         style="fill:#ff7f2a;-inkscape-font-specification:DIN"
         id="path4036"
         inkscape:connector-curvature="0" />
      <path
         d="m 212.41435,260.72888 -4.0194,0 -2.2176,-3.9006 -0.6336,0.693 0,3.2076 -3.2472,0 0,-14.0976 3.2472,0 0,7.1676 2.871,-3.7224 3.9006,0 -3.9204,4.4154 4.0194,6.237"
         style="fill:#ff7f2a;-inkscape-font-specification:DIN"
         id="path4038"
         inkscape:connector-curvature="0" />
      <path
         d="m 222.7156,256.45208 -6.3756,0 c 0,0.462 0.165,0.8448 0.495,1.1484 0.3432,0.3432 0.8052,0.5148 1.386,0.5148 0.8712,0 1.6038,-0.297 2.1978,-0.891 l 1.9404,1.9404 c -0.58081,0.5808 -1.1616,0.9966 -1.7424,1.2474 -0.66,0.2904 -1.4586,0.4356 -2.3958,0.4356 -3.3792,0 -5.0688,-1.815 -5.0688,-5.445 0,-1.70279 0.4488,-3.04919 1.3464,-4.0392 0.858,-0.93719 1.9998,-1.40579 3.4254,-1.4058 1.4916,1e-5 2.6796,0.49501 3.564,1.485 0.81839,0.92401 1.22759,2.11201 1.2276,3.564 l 0,1.4454 m -3.2076,-2.1582 c 0,-0.50159 -0.1452,-0.90419 -0.4356,-1.2078 -0.2772,-0.30359 -0.66,-0.45539 -1.1484,-0.4554 -0.6864,10e-6 -1.155,0.27721 -1.4058,0.8316 -0.1188,0.26401 -0.1782,0.54121 -0.1782,0.8316 l 3.168,0"
         style="fill:#ff7f2a;-inkscape-font-specification:DIN"
         id="path4040"
         inkscape:connector-curvature="0" />
      <path
         d="m 238.08535,259.28348 c -1.04281,1.0428 -2.34301,1.5642 -3.9006,1.5642 -1.55761,0 -2.86441,-0.528 -3.9204,-1.584 -0.66001,-0.66 -1.0824,-1.5114 -1.2672,-2.5542 -0.1056,-0.5808 -0.1584,-1.5906 -0.1584,-3.0294 0,-1.43879 0.0528,-2.44859 0.1584,-3.0294 0.1848,-1.04279 0.60719,-1.89419 1.2672,-2.5542 1.05599,-1.05599 2.36279,-1.58399 3.9204,-1.584 1.55759,1e-5 2.85779,0.52141 3.9006,1.5642 l -2.2968,2.2968 c -0.51481,-0.51479 -1.04941,-0.77219 -1.6038,-0.7722 -0.59401,1e-5 -1.04281,0.19801 -1.3464,0.594 -0.35641,0.46201 -0.53461,1.62361 -0.5346,3.4848 -1e-5,1.8612 0.17819,3.0228 0.5346,3.4848 0.30359,0.396 0.75239,0.594 1.3464,0.594 0.55439,0 1.08899,-0.2574 1.6038,-0.7722 l 2.2968,2.2968"
         style="fill:#ff7f2a;-inkscape-font-specification:DIN"
         id="path4042"
         inkscape:connector-curvature="0" />
      <path
         d="m 248.73527,255.40268 c -1e-5,1.056 -0.0858,1.881 -0.2574,2.475 -0.15841,0.594 -0.46201,1.1286 -0.9108,1.6038 -0.84481,0.9108 -1.98661,1.3662 -3.4254,1.3662 -1.4388,0 -2.5806,-0.4554 -3.4254,-1.3662 -0.4488,-0.4752 -0.759,-1.0098 -0.9306,-1.6038 -0.1584,-0.594 -0.2376,-1.419 -0.2376,-2.475 0,-1.056 0.0792,-1.88099 0.2376,-2.475 0.1716,-0.59399 0.4818,-1.12859 0.9306,-1.6038 0.8448,-0.91079 1.9866,-1.36619 3.4254,-1.3662 1.43879,1e-5 2.58059,0.45541 3.4254,1.3662 0.44879,0.47521 0.75239,1.00981 0.9108,1.6038 0.17159,0.59401 0.25739,1.419 0.2574,2.475 m -3.2472,0 c -1e-5,-0.792 -0.0462,-1.33979 -0.1386,-1.6434 -0.19801,-0.58079 -0.6006,-0.87119 -1.2078,-0.8712 -0.6072,1e-5 -1.0098,0.29041 -1.2078,0.8712 -0.0924,0.30361 -0.1386,0.8514 -0.1386,1.6434 0,0.792 0.0462,1.3398 0.1386,1.6434 0.198,0.5808 0.6006,0.8712 1.2078,0.8712 0.6072,0 1.00979,-0.2904 1.2078,-0.8712 0.0924,-0.3036 0.13859,-0.8514 0.1386,-1.6434"
         style="fill:#ff7f2a;-inkscape-font-specification:DIN"
         id="path4044"
         inkscape:connector-curvature="0" />
      <path
         d="m 259.16554,260.72888 -3.168,0 0,-0.8712 c -0.6468,0.6468 -1.4388,0.9702 -2.376,0.9702 -1.0692,0 -1.9206,-0.3102 -2.5542,-0.9306 -0.6204,-0.6336 -0.9306,-1.4718 -0.9306,-2.5146 0,-0.8712 0.2904,-1.584 0.8712,-2.1384 0.6468,-0.6336 1.5642,-0.9504 2.7522,-0.9504 l 2.1582,0 0,-0.2772 c 0,-0.88439 -0.5346,-1.32659 -1.6038,-1.3266 -0.66,1e-5 -1.2276,0.23761 -1.7028,0.7128 l -2.0196,-2.0196 c 0.5412,-0.54119 1.0956,-0.91079 1.6632,-1.1088 0.5676,-0.21119 1.3068,-0.31679 2.2176,-0.3168 3.1284,1e-5 4.69259,1.28701 4.6926,3.861 l 0,6.9102 m -3.2472,-3.9996 0,-0.2772 -1.6434,0 c -0.6864,0 -1.0296,0.2838 -1.0296,0.8514 0,0.594 0.3564,0.891 1.0692,0.891 0.5808,0 1.0098,-0.132 1.287,-0.396 0.2112,-0.198 0.3168,-0.5544 0.3168,-1.0692"
         style="fill:#ff7f2a;-inkscape-font-specification:DIN"
         id="path4046"
         inkscape:connector-curvature="0" />
      <path
         d="m 266.35604,260.72888 -1.7226,0 c -1.0956,0 -1.9404,-0.3432 -2.5344,-1.0296 -0.5148,-0.5808 -0.7722,-1.287 -0.7722,-2.1186 l 0,-10.9494 3.2472,0 0,10.7118 c 0,0.4356 0.2178,0.6534 0.6534,0.6534 l 1.1286,0 0,2.7324"
         style="fill:#ff7f2a;-inkscape-font-specification:DIN"
         id="path4048"
         inkscape:connector-curvature="0" />
      <path
         d="m 271.79702,247.62128 c 0,0.54121 -0.198,1.00981 -0.594,1.4058 -0.3828,0.38281 -0.8448,0.57421 -1.386,0.5742 -0.5412,1e-5 -1.0098,-0.19139 -1.4058,-0.5742 -0.3828,-0.39599 -0.5742,-0.86459 -0.5742,-1.4058 0,-0.54119 0.1914,-1.00319 0.5742,-1.386 0.396,-0.39599 0.8646,-0.59399 1.4058,-0.594 0.5412,1e-5 1.0032,0.19801 1.386,0.594 0.396,0.38281 0.594,0.84481 0.594,1.386 m -0.3564,13.1076 -3.2472,0 0,-10.2366 3.2472,0 0,10.2366"
         style="fill:#ff7f2a;-inkscape-font-specification:DIN"
         id="path4050"
         inkscape:connector-curvature="0" />
      <path
         d="m 279.04599,260.72888 -1.6236,0 c -1.0956,0 -1.9404,-0.3432 -2.5344,-1.0296 -0.5148,-0.5808 -0.7722,-1.287 -0.7722,-2.1186 l 0,-4.5936 -0.9702,0 0,-2.4948 0.9702,0 0,-3.0492 3.2472,0 0,3.0492 1.683,0 0,2.4948 -1.683,0 0,4.356 c 0,0.4356 0.2178,0.6534 0.6534,0.6534 l 1.0296,0 0,2.7324"
         style="fill:#ff7f2a;-inkscape-font-specification:DIN"
         id="path4052"
         inkscape:connector-curvature="0" />
      <path
         d="m 284.67475,247.62128 c 0,0.54121 -0.198,1.00981 -0.594,1.4058 -0.3828,0.38281 -0.8448,0.57421 -1.386,0.5742 -0.5412,1e-5 -1.0098,-0.19139 -1.4058,-0.5742 -0.3828,-0.39599 -0.5742,-0.86459 -0.5742,-1.4058 0,-0.54119 0.1914,-1.00319 0.5742,-1.386 0.396,-0.39599 0.8646,-0.59399 1.4058,-0.594 0.5412,1e-5 1.0032,0.19801 1.386,0.594 0.396,0.38281 0.594,0.84481 0.594,1.386 m -0.3564,13.1076 -3.2472,0 0,-10.2366 3.2472,0 0,10.2366"
         style="fill:#ff7f2a;-inkscape-font-specification:DIN"
         id="path4054"
         inkscape:connector-curvature="0" />
      <path
         d="m 295.56692,255.40268 c -10e-6,1.056 -0.0858,1.881 -0.2574,2.475 -0.15841,0.594 -0.46201,1.1286 -0.9108,1.6038 -0.84481,0.9108 -1.98661,1.3662 -3.4254,1.3662 -1.4388,0 -2.5806,-0.4554 -3.4254,-1.3662 -0.4488,-0.4752 -0.759,-1.0098 -0.9306,-1.6038 -0.1584,-0.594 -0.2376,-1.419 -0.2376,-2.475 0,-1.056 0.0792,-1.88099 0.2376,-2.475 0.1716,-0.59399 0.4818,-1.12859 0.9306,-1.6038 0.8448,-0.91079 1.9866,-1.36619 3.4254,-1.3662 1.43879,1e-5 2.58059,0.45541 3.4254,1.3662 0.44879,0.47521 0.75239,1.00981 0.9108,1.6038 0.17159,0.59401 0.25739,1.419 0.2574,2.475 m -3.2472,0 c -1e-5,-0.792 -0.0462,-1.33979 -0.1386,-1.6434 -0.19801,-0.58079 -0.6006,-0.87119 -1.2078,-0.8712 -0.6072,1e-5 -1.0098,0.29041 -1.2078,0.8712 -0.0924,0.30361 -0.1386,0.8514 -0.1386,1.6434 0,0.792 0.0462,1.3398 0.1386,1.6434 0.198,0.5808 0.6006,0.8712 1.2078,0.8712 0.6072,0 1.00979,-0.2904 1.2078,-0.8712 0.0924,-0.3036 0.13859,-0.8514 0.1386,-1.6434"
         style="fill:#ff7f2a;-inkscape-font-specification:DIN"
         id="path4056"
         inkscape:connector-curvature="0" />
      <path
         d="m 306.76938,260.72888 -3.2472,0 0,-6.3756 c -10e-6,-0.54119 -0.16501,-0.93719 -0.495,-1.188 -0.22441,-0.18479 -0.49501,-0.27719 -0.8118,-0.2772 -0.31681,1e-5 -0.58741,0.0924 -0.8118,0.2772 -0.33001,0.25081 -0.49501,0.64681 -0.495,1.188 l 0,6.3756 -3.2472,0 0,-10.6524 3.168,0 0,0.8712 c 0.65999,-0.65999 1.48499,-0.98999 2.475,-0.99 0.98999,1e-5 1.78859,0.30361 2.3958,0.9108 0.71279,0.71281 1.06919,1.72921 1.0692,3.0492 l 0,6.8112"
         style="fill:#ff7f2a;-inkscape-font-specification:DIN"
         id="path4058"
         inkscape:connector-curvature="0" />
    </g>
  </g>
</svg>
