<?xml version="1.0" encoding="UTF-8" standalone="no"?>
<!-- Created with Inkscape (http://www.inkscape.org/) -->

<svg
   xmlns:dc="http://purl.org/dc/elements/1.1/"
   xmlns:cc="http://creativecommons.org/ns#"
   xmlns:rdf="http://www.w3.org/1999/02/22-rdf-syntax-ns#"
   xmlns:svg="http://www.w3.org/2000/svg"
   xmlns="http://www.w3.org/2000/svg"
   xmlns:sodipodi="http://sodipodi.sourceforge.net/DTD/sodipodi-0.dtd"
   xmlns:inkscape="http://www.inkscape.org/namespaces/inkscape"
   width="250"
   height="250"
   id="svg2"
   version="1.1"
   inkscape:version="0.48.4 r9939"
   sodipodi:docname="logo-square.svg"
   inkscape:export-filename="/home/clay/git/longhorn-bike-coalition-design/png/logo.png"
   inkscape:export-xdpi="90"
   inkscape:export-ydpi="90">
  <defs
     id="defs4" />
  <sodipodi:namedview
     id="base"
     pagecolor="#ffffff"
     bordercolor="#666666"
     borderopacity="1.0"
     inkscape:pageopacity="1"
     inkscape:pageshadow="2"
     inkscape:zoom="1.449"
     inkscape:cx="179.145"
     inkscape:cy="142.4546"
     inkscape:document-units="px"
     inkscape:current-layer="layer1"
     showgrid="false"
     inkscape:window-width="1600"
     inkscape:window-height="876"
     inkscape:window-x="0"
     inkscape:window-y="24"
     inkscape:window-maximized="1">
    <inkscape:grid
       type="xygrid"
       id="grid2985"
       empspacing="5"
       dotted="true"
       visible="true"
       enabled="true"
       snapvisiblegridlinesonly="true" />
  </sodipodi:namedview>
  <metadata
     id="metadata7">
    <rdf:RDF>
      <cc:Work
         rdf:about="">
        <dc:format>image/svg+xml</dc:format>
        <dc:type
           rdf:resource="http://purl.org/dc/dcmitype/StillImage" />
        <dc:title></dc:title>
      </cc:Work>
    </rdf:RDF>
  </metadata>
  <g
     inkscape:label="frame"
     inkscape:groupmode="layer"
     id="layer1"
     transform="translate(0,-802.36218)">
    <path
       id="path3757"
       style="font-size:medium;font-style:normal;font-variant:normal;font-weight:normal;font-stretch:normal;text-indent:0;text-align:start;text-decoration:none;line-height:normal;letter-spacing:normal;word-spacing:normal;text-transform:none;direction:ltr;block-progression:tb;writing-mode:lr-tb;text-anchor:start;baseline-shift:baseline;color:#000000;fill:#cccccc;fill-opacity:1;stroke:none;stroke-width:8;marker:none;visibility:visible;display:inline;overflow:visible;enable-background:accumulate;font-family:Sans;-inkscape-font-specification:Sans"
       d="m 55,917.398 c -21.49173,0 -39,17.50827 -39,39 0,21.49169 17.508261,39 39,39 16.322211,0 30.32764,-10.058 36.125,-24.34375 L 89.5625,970.773 C 87.383405,970.37159 85.395678,969.30123 83.75,967.92925 79.189891,979.3442 68.087199,987.39809 55,987.398 c -17.168201,0 -31,-13.83185 -31,-31 0,-17.16821 13.83179,-31 31,-31 4.929835,0 9.561257,1.18241 13.6875,3.21875 -0.297253,-2.91029 0.362302,-5.58446 1.71875,-8.0625 C 65.677498,918.52844 60.452354,917.398 55,917.398 z m 140,0 c -1.51376,0 -2.99924,0.11226 -4.46875,0.28125 l 2.59375,7.8125 c 0.62188,-0.0369 1.24357,-0.0937 1.875,-0.0937 17.16821,0 31,13.83179 31,31 0,17.16815 -13.8318,31 -31,31 -17.1682,0 -31,-13.83185 -31,-31 0,-10.85311 5.53376,-20.37127 13.9375,-25.90625 l -2.59375,-7.75 C 163.7925,929.52244 156,942.07341 156,956.398 c 0,21.49169 17.50826,39 39,39 21.49174,0 39,-17.50831 39,-39 0,-21.49173 -17.50827,-39 -39,-39 z m -12.3125,-41 a 3.0003,3.0003 0 0 0 -2.40625,1.71875 l -1.71875,3.65625 2.75,8.25 3.59375,-7.625 8.09375,0 c 3.16667,0 3.75,1.5 3.75,3 0,1.5 -0.58333,3 -3.75,3 a 3.0003,3.0003 0 1 0 0,6 c 5.83333,0 9.75,-4.5 9.75,-9 0,-4.5 -3.91667,-9 -9.75,-9 l -10,0 a 3.0003,3.0003 0 0 0 -0.3125,0 z m -14.96875,23.4375 -54.8125,59.0625 a 8.0008,8.0008 0 0 1 4.5625,3.84375 l 52.40625,-56.4375 -2.15625,-6.46875 z M 69.125,930.99175 52.53125,954.67925 a 3.0003,3.0003 0 0 0 1.9375,4.65625 l 25.96875,4.71875 C 80.128182,963.54021 79.837776,963.0248 79.625,962.523 a 8.0008,8.0008 0 0 1 -0.21875,-0.59375 l -1.46875,-4.375 -17.78125,-3.25 11.3125,-16.1875 -2.0625,-6.1875 c -0.106392,-0.31918 -0.196724,-0.62331 -0.28125,-0.9375 z"
       inkscape:connector-curvature="0" />
  </g>
  <g
     inkscape:groupmode="layer"
     id="layer5"
     inkscape:label="hookem-2"
     transform="translate(0,-150)" />
  <g
     inkscape:groupmode="layer"
     id="layer4"
     inkscape:label="hookem"
     transform="translate(0,-150)">
    <path
       style="font-size:medium;font-style:normal;font-variant:normal;font-weight:normal;font-stretch:normal;text-indent:0;text-align:start;text-decoration:none;line-height:normal;letter-spacing:normal;word-spacing:normal;text-transform:none;direction:ltr;block-progression:tb;writing-mode:lr-tb;text-anchor:start;baseline-shift:baseline;color:#000000;fill:#ff7f2a;fill-opacity:1;stroke:none;stroke-width:8;marker:none;visibility:visible;display:inline;overflow:visible;enable-background:accumulate;font-family:Sans;-inkscape-font-specification:Sans"
       d="m 148.46875,179.66082 c -1.68688,0.0416 -3.3561,0.4294 -4.90625,1.09375 -6.20061,2.65741 -10.34971,10.54461 -7.34375,19.5625 l 11.84375,35.5625 c -1.0166,-0.19778 -2.02806,-0.34375 -3.0625,-0.34375 -3.50921,0 -6.9527,1.20702 -10,3.34375 -3.04802,-2.13878 -6.48656,-3.33985 -10,-3.34375 -4.40784,-0.005 -8.72829,1.88013 -12.25,5.1875 l -16.96875,-50.9375 c -1.41902,-4.25706 -4.502614,-7.31626 -8.03125,-8.65625 -3.528636,-1.33999 -7.340289,-1.14173 -10.71875,0.1875 -6.756923,2.65846 -11.894359,10.75442 -8.8125,20 l 17.34375,52.0625 -10.84375,15.375 c -1.935352,2.74173 -2.645646,6.12556 -1.5,9.5625 l 10,30 c 0.02776,0.0949 0.05904,0.1887 0.09375,0.28125 1.116016,2.63195 3.633069,5.26053 6.96875,5.875 l 19,3.5 c 2.1275,0.57175 4.57597,-0.97529 4.97309,-3.14219 0.39712,-2.16691 -1.3436,-4.48168 -3.53559,-4.70156 l -19,-3.5 c -0.611759,-0.11269 -0.580326,-0.0928 -1.03125,-1.15625 l -9.90625,-29.6875 c -0.136714,-0.41014 0.09679,-1.86629 0.5,-2.4375 l 7.4375,-10.53125 7.5,22.5 c 0.528689,2.13757 3.065005,3.53197 5.15312,2.83305 2.08812,-0.69891 3.27399,-3.33917 2.40938,-5.3643 l -28,-84 c -1.918141,-5.75442 0.777755,-8.65846 4.1875,-10 1.704872,-0.67077 3.559886,-0.72251 4.96875,-0.1875 1.408864,0.53501 2.533605,1.47581 3.28125,3.71875 l 20,60 c 0.61037,1.76596 2.58724,2.944 4.43088,2.64043 1.84364,-0.30357 3.33843,-2.05325 3.35037,-3.92168 0,-2.11451 0.2886,-2.6161 1.84375,-4.1875 2.35098,-2.37556 4.76563,-3.31512 7.125,-3.3125 2.35937,0.003 4.81605,0.9723 7.1875,3.34375 1.48319,1.49909 4.20431,1.49909 5.6875,0 2.37146,-2.37146 4.79911,-3.34375 7.15625,-3.34375 2.35714,0 4.78479,0.97229 7.15625,3.34375 1.26225,1.26382 3.41383,1.51511 4.93334,0.57617 1.51951,-0.93895 2.2573,-2.97565 1.69166,-4.66992 l -15,-45 c -1.99404,-5.98211 0.35686,-8.59491 2.90625,-9.6875 1.27469,-0.5463 2.6538,-0.57452 3.75,-0.125 1.0962,0.44952 2.09748,1.29243 2.78125,3.34375 l 18,54 20,60 c 0.52869,2.13757 3.065,3.53197 5.15312,2.83305 2.08812,-0.69891 3.27399,-3.33917 2.40938,-5.3643 l -20,-60 -18,-54 c -1.31623,-3.94868 -4.06495,-6.85577 -7.3125,-8.1875 -1.62378,-0.66586 -3.31312,-0.97912 -5,-0.9375 z"
       id="path3836"
       inkscape:connector-curvature="0"
       sodipodi:nodetypes="csccsccccsscccsccscscscccccsccssscscscccscscssssccsccssc" />
    <g
       transform="translate(-73.999734,106.04997)"
       style="font-size:19.79999924px;font-style:normal;font-variant:normal;font-weight:normal;font-stretch:normal;text-align:center;line-height:125%;letter-spacing:0px;word-spacing:0px;text-anchor:middle;fill:#ff7f2a;fill-opacity:1;stroke:none;font-family:DIN;-inkscape-font-specification:DIN"
       id="flowRoot3863">
      <path
         d="m 100.93014,260.72888 -9.3852,0 0,-14.0976 3.465,0 0,11.0088 5.9202,0 0,3.0888"
         style="fill:#ff7f2a;-inkscape-font-specification:DIN"
         id="path4018"
         inkscape:connector-curvature="0" />
      <path
         d="m 111.56614,255.40268 c -1e-5,1.056 -0.0858,1.881 -0.2574,2.475 -0.15841,0.594 -0.46201,1.1286 -0.9108,1.6038 -0.84481,0.9108 -1.9866,1.3662 -3.4254,1.3662 -1.4388,0 -2.5806,-0.4554 -3.4254,-1.3662 -0.4488,-0.4752 -0.759,-1.0098 -0.9306,-1.6038 -0.1584,-0.594 -0.2376,-1.419 -0.2376,-2.475 0,-1.056 0.0792,-1.88099 0.2376,-2.475 0.1716,-0.59399 0.4818,-1.12859 0.9306,-1.6038 0.8448,-0.91079 1.9866,-1.36619 3.4254,-1.3662 1.4388,1e-5 2.58059,0.45541 3.4254,1.3662 0.44879,0.47521 0.75239,1.00981 0.9108,1.6038 0.17159,0.59401 0.25739,1.419 0.2574,2.475 m -3.2472,0 c 0,-0.792 -0.0462,-1.33979 -0.1386,-1.6434 -0.198,-0.58079 -0.6006,-0.87119 -1.2078,-0.8712 -0.6072,1e-5 -1.0098,0.29041 -1.2078,0.8712 -0.0924,0.30361 -0.1386,0.8514 -0.1386,1.6434 0,0.792 0.0462,1.3398 0.1386,1.6434 0.198,0.5808 0.6006,0.8712 1.2078,0.8712 0.6072,0 1.0098,-0.2904 1.2078,-0.8712 0.0924,-0.3036 0.1386,-0.8514 0.1386,-1.6434"
         style="fill:#ff7f2a;-inkscape-font-specification:DIN"
         id="path4020"
         inkscape:connector-curvature="0" />
      <path
         d="m 122.76861,260.72888 -3.2472,0 0,-6.3756 c -1e-5,-0.54119 -0.16501,-0.93719 -0.495,-1.188 -0.22441,-0.18479 -0.49501,-0.27719 -0.8118,-0.2772 -0.3168,1e-5 -0.5874,0.0924 -0.8118,0.2772 -0.33,0.25081 -0.495,0.64681 -0.495,1.188 l 0,6.3756 -3.2472,0 0,-10.6524 3.168,0 0,0.8712 c 0.66,-0.65999 1.485,-0.98999 2.475,-0.99 0.98999,1e-5 1.78859,0.30361 2.3958,0.9108 0.71279,0.71281 1.06919,1.72921 1.0692,3.0492 l 0,6.8112"
         style="fill:#ff7f2a;-inkscape-font-specification:DIN"
         id="path4022"
         inkscape:connector-curvature="0" />
      <path
         d="m 133.76008,259.95668 c -10e-6,1.2672 -0.44221,2.3034 -1.3266,3.1086 -0.8844,0.81839 -2.046,1.22759 -3.4848,1.2276 -1.7424,-1e-5 -3.0756,-0.46201 -3.9996,-1.386 l 2.0196,-2.0196 c 0.4488,0.4488 1.056,0.6732 1.8216,0.6732 1.1484,0 1.7226,-0.5412 1.7226,-1.6236 l 0,-0.7722 c -0.594,0.594 -1.3596,0.891 -2.2968,0.891 -1.0296,0 -1.8612,-0.3168 -2.4948,-0.9504 -0.4488,-0.4488 -0.7326,-1.0098 -0.8514,-1.683 -0.0924,-0.462 -0.1386,-1.2672 -0.1386,-2.4156 0,-1.14839 0.0462,-1.95359 0.1386,-2.4156 0.1188,-0.67319 0.4026,-1.23419 0.8514,-1.683 0.6336,-0.63359 1.4718,-0.95039 2.5146,-0.9504 0.924,1e-5 1.716,0.33001 2.376,0.99 l 0,-0.8712 3.1482,0 0,9.8802 m -3.2472,-4.95 c 0,-0.6864 -0.0594,-1.17479 -0.1782,-1.4652 -0.198,-0.43559 -0.561,-0.65339 -1.089,-0.6534 -0.528,1e-5 -0.8844,0.21781 -1.0692,0.6534 -0.132,0.29041 -0.198,0.7788 -0.198,1.4652 0,0.6864 0.066,1.1748 0.198,1.4652 0.1848,0.4356 0.5412,0.6534 1.0692,0.6534 0.528,0 0.891,-0.2178 1.089,-0.6534 0.1188,-0.2904 0.1782,-0.7788 0.1782,-1.4652"
         style="fill:#ff7f2a;-inkscape-font-specification:DIN"
         id="path4024"
         inkscape:connector-curvature="0" />
      <path
         d="m 145.19551,260.72888 -3.2472,0 0,-6.4548 c 0,-0.50159 -0.1584,-0.87779 -0.4752,-1.1286 -0.2244,-0.17159 -0.4818,-0.25739 -0.7722,-0.2574 -0.2904,1e-5 -0.5478,0.0858 -0.7722,0.2574 -0.3168,0.25081 -0.4752,0.62701 -0.4752,1.1286 l 0,6.4548 -3.24719,0 0,-14.0976 3.24719,0 0,4.3164 c 0.66,-0.65999 1.4388,-0.98999 2.3364,-0.99 1.1088,1e-5 1.9668,0.37621 2.574,1.1286 0.55439,0.68641 0.83159,1.59721 0.8316,2.7324 l 0,6.9102"
         style="fill:#ff7f2a;-inkscape-font-specification:DIN"
         id="path4026"
         inkscape:connector-curvature="0" />
      <path
         d="m 156.34817,255.40268 c -1e-5,1.056 -0.0858,1.881 -0.2574,2.475 -0.15841,0.594 -0.46201,1.1286 -0.9108,1.6038 -0.84481,0.9108 -1.98661,1.3662 -3.4254,1.3662 -1.4388,0 -2.5806,-0.4554 -3.4254,-1.3662 -0.4488,-0.4752 -0.759,-1.0098 -0.9306,-1.6038 -0.1584,-0.594 -0.2376,-1.419 -0.2376,-2.475 0,-1.056 0.0792,-1.88099 0.2376,-2.475 0.1716,-0.59399 0.4818,-1.12859 0.9306,-1.6038 0.8448,-0.91079 1.9866,-1.36619 3.4254,-1.3662 1.43879,1e-5 2.58059,0.45541 3.4254,1.3662 0.44879,0.47521 0.75239,1.00981 0.9108,1.6038 0.17159,0.59401 0.25739,1.419 0.2574,2.475 m -3.2472,0 c -1e-5,-0.792 -0.0462,-1.33979 -0.1386,-1.6434 -0.19801,-0.58079 -0.6006,-0.87119 -1.2078,-0.8712 -0.6072,1e-5 -1.0098,0.29041 -1.2078,0.8712 -0.0924,0.30361 -0.1386,0.8514 -0.1386,1.6434 0,0.792 0.0462,1.3398 0.1386,1.6434 0.198,0.5808 0.6006,0.8712 1.2078,0.8712 0.6072,0 1.00979,-0.2904 1.2078,-0.8712 0.0924,-0.3036 0.13859,-0.8514 0.1386,-1.6434"
         style="fill:#ff7f2a;-inkscape-font-specification:DIN"
         id="path4028"
         inkscape:connector-curvature="0" />
      <path
         d="m 166.62004,250.94768 -2.4552,2.4948 c -0.3696,-0.36959 -0.759,-0.55439 -1.1682,-0.5544 -0.3036,1e-5 -0.5742,0.0924 -0.8118,0.2772 -0.33,0.26401 -0.495,0.66001 -0.495,1.188 l 0,6.3756 -3.2472,0 0,-10.6524 3.168,0 0,0.8712 c 0.66,-0.65999 1.4982,-0.98999 2.5146,-0.99 1.0032,1e-5 1.83479,0.33001 2.4948,0.99"
         style="fill:#ff7f2a;-inkscape-font-specification:DIN"
         id="path4030"
         inkscape:connector-curvature="0" />
      <path
         d="m 176.94791,260.72888 -3.2472,0 0,-6.3756 c -10e-6,-0.54119 -0.16501,-0.93719 -0.495,-1.188 -0.22441,-0.18479 -0.49501,-0.27719 -0.8118,-0.2772 -0.31681,1e-5 -0.58741,0.0924 -0.8118,0.2772 -0.33001,0.25081 -0.49501,0.64681 -0.495,1.188 l 0,6.3756 -3.2472,0 0,-10.6524 3.168,0 0,0.8712 c 0.65999,-0.65999 1.48499,-0.98999 2.475,-0.99 0.98999,1e-5 1.78859,0.30361 2.3958,0.9108 0.71279,0.71281 1.06919,1.72921 1.0692,3.0492 l 0,6.8112"
         style="fill:#ff7f2a;-inkscape-font-specification:DIN"
         id="path4032"
         inkscape:connector-curvature="0" />
      <path
         d="m 194.42697,256.57088 c -1e-5,1.3068 -0.40921,2.3298 -1.2276,3.069 -0.81841,0.726 -1.8744,1.089 -3.168,1.089 l -6.138,0 0,-14.0976 5.841,0 c 1.4388,1e-5 2.54759,0.36961 3.3264,1.1088 0.77879,0.73921 1.16819,1.72921 1.1682,2.97 -1e-5,1.16161 -0.51481,2.09221 -1.5444,2.7918 1.16159,0.726 1.74239,1.749 1.7424,3.069 m -3.663,-5.6826 c 0,-0.76559 -0.4158,-1.14839 -1.2474,-1.1484 l -2.1582,0 0,2.2968 2.1582,0 c 0.8316,1e-5 1.2474,-0.38279 1.2474,-1.1484 m 0.198,5.4846 c 0,-0.8184 -0.4224,-1.2276 -1.2672,-1.2276 l -2.3364,0 0,2.475 2.3364,0 c 0.8448,0 1.2672,-0.4158 1.2672,-1.2474"
         style="fill:#ff7f2a;-inkscape-font-specification:DIN"
         id="path4034"
         inkscape:connector-curvature="0" />
      <path
         d="m 200.21538,247.62128 c -1e-5,0.54121 -0.19801,1.00981 -0.594,1.4058 -0.3828,0.38281 -0.8448,0.57421 -1.386,0.5742 -0.5412,1e-5 -1.0098,-0.19139 -1.4058,-0.5742 -0.3828,-0.39599 -0.5742,-0.86459 -0.5742,-1.4058 0,-0.54119 0.1914,-1.00319 0.5742,-1.386 0.396,-0.39599 0.8646,-0.59399 1.4058,-0.594 0.5412,1e-5 1.0032,0.19801 1.386,0.594 0.39599,0.38281 0.59399,0.84481 0.594,1.386 m -0.3564,13.1076 -3.2472,0 0,-10.2366 3.2472,0 0,10.2366"
         style="fill:#ff7f2a;-inkscape-font-specification:DIN"
         id="path4036"
         inkscape:connector-curvature="0" />
      <path
         d="m 212.41435,260.72888 -4.0194,0 -2.2176,-3.9006 -0.6336,0.693 0,3.2076 -3.2472,0 0,-14.0976 3.2472,0 0,7.1676 2.871,-3.7224 3.9006,0 -3.9204,4.4154 4.0194,6.237"
         style="fill:#ff7f2a;-inkscape-font-specification:DIN"
         id="path4038"
         inkscape:connector-curvature="0" />
      <path
         d="m 222.7156,256.45208 -6.3756,0 c 0,0.462 0.165,0.8448 0.495,1.1484 0.3432,0.3432 0.8052,0.5148 1.386,0.5148 0.8712,0 1.6038,-0.297 2.1978,-0.891 l 1.9404,1.9404 c -0.58081,0.5808 -1.1616,0.9966 -1.7424,1.2474 -0.66,0.2904 -1.4586,0.4356 -2.3958,0.4356 -3.3792,0 -5.0688,-1.815 -5.0688,-5.445 0,-1.70279 0.4488,-3.04919 1.3464,-4.0392 0.858,-0.93719 1.9998,-1.40579 3.4254,-1.4058 1.4916,1e-5 2.6796,0.49501 3.564,1.485 0.81839,0.92401 1.22759,2.11201 1.2276,3.564 l 0,1.4454 m -3.2076,-2.1582 c 0,-0.50159 -0.1452,-0.90419 -0.4356,-1.2078 -0.2772,-0.30359 -0.66,-0.45539 -1.1484,-0.4554 -0.6864,10e-6 -1.155,0.27721 -1.4058,0.8316 -0.1188,0.26401 -0.1782,0.54121 -0.1782,0.8316 l 3.168,0"
         style="fill:#ff7f2a;-inkscape-font-specification:DIN"
         id="path4040"
         inkscape:connector-curvature="0" />
      <path
         d="m 238.08535,259.28348 c -1.04281,1.0428 -2.34301,1.5642 -3.9006,1.5642 -1.55761,0 -2.86441,-0.528 -3.9204,-1.584 -0.66001,-0.66 -1.0824,-1.5114 -1.2672,-2.5542 -0.1056,-0.5808 -0.1584,-1.5906 -0.1584,-3.0294 0,-1.43879 0.0528,-2.44859 0.1584,-3.0294 0.1848,-1.04279 0.60719,-1.89419 1.2672,-2.5542 1.05599,-1.05599 2.36279,-1.58399 3.9204,-1.584 1.55759,1e-5 2.85779,0.52141 3.9006,1.5642 l -2.2968,2.2968 c -0.51481,-0.51479 -1.04941,-0.77219 -1.6038,-0.7722 -0.59401,1e-5 -1.04281,0.19801 -1.3464,0.594 -0.35641,0.46201 -0.53461,1.62361 -0.5346,3.4848 -1e-5,1.8612 0.17819,3.0228 0.5346,3.4848 0.30359,0.396 0.75239,0.594 1.3464,0.594 0.55439,0 1.08899,-0.2574 1.6038,-0.7722 l 2.2968,2.2968"
         style="fill:#ff7f2a;-inkscape-font-specification:DIN"
         id="path4042"
         inkscape:connector-curvature="0" />
      <path
         d="m 248.73527,255.40268 c -1e-5,1.056 -0.0858,1.881 -0.2574,2.475 -0.15841,0.594 -0.46201,1.1286 -0.9108,1.6038 -0.84481,0.9108 -1.98661,1.3662 -3.4254,1.3662 -1.4388,0 -2.5806,-0.4554 -3.4254,-1.3662 -0.4488,-0.4752 -0.759,-1.0098 -0.9306,-1.6038 -0.1584,-0.594 -0.2376,-1.419 -0.2376,-2.475 0,-1.056 0.0792,-1.88099 0.2376,-2.475 0.1716,-0.59399 0.4818,-1.12859 0.9306,-1.6038 0.8448,-0.91079 1.9866,-1.36619 3.4254,-1.3662 1.43879,1e-5 2.58059,0.45541 3.4254,1.3662 0.44879,0.47521 0.75239,1.00981 0.9108,1.6038 0.17159,0.59401 0.25739,1.419 0.2574,2.475 m -3.2472,0 c -1e-5,-0.792 -0.0462,-1.33979 -0.1386,-1.6434 -0.19801,-0.58079 -0.6006,-0.87119 -1.2078,-0.8712 -0.6072,1e-5 -1.0098,0.29041 -1.2078,0.8712 -0.0924,0.30361 -0.1386,0.8514 -0.1386,1.6434 0,0.792 0.0462,1.3398 0.1386,1.6434 0.198,0.5808 0.6006,0.8712 1.2078,0.8712 0.6072,0 1.00979,-0.2904 1.2078,-0.8712 0.0924,-0.3036 0.13859,-0.8514 0.1386,-1.6434"
         style="fill:#ff7f2a;-inkscape-font-specification:DIN"
         id="path4044"
         inkscape:connector-curvature="0" />
      <path
         d="m 259.16554,260.72888 -3.168,0 0,-0.8712 c -0.6468,0.6468 -1.4388,0.9702 -2.376,0.9702 -1.0692,0 -1.9206,-0.3102 -2.5542,-0.9306 -0.6204,-0.6336 -0.9306,-1.4718 -0.9306,-2.5146 0,-0.8712 0.2904,-1.584 0.8712,-2.1384 0.6468,-0.6336 1.5642,-0.9504 2.7522,-0.9504 l 2.1582,0 0,-0.2772 c 0,-0.88439 -0.5346,-1.32659 -1.6038,-1.3266 -0.66,1e-5 -1.2276,0.23761 -1.7028,0.7128 l -2.0196,-2.0196 c 0.5412,-0.54119 1.0956,-0.91079 1.6632,-1.1088 0.5676,-0.21119 1.3068,-0.31679 2.2176,-0.3168 3.1284,1e-5 4.69259,1.28701 4.6926,3.861 l 0,6.9102 m -3.2472,-3.9996 0,-0.2772 -1.6434,0 c -0.6864,0 -1.0296,0.2838 -1.0296,0.8514 0,0.594 0.3564,0.891 1.0692,0.891 0.5808,0 1.0098,-0.132 1.287,-0.396 0.2112,-0.198 0.3168,-0.5544 0.3168,-1.0692"
         style="fill:#ff7f2a;-inkscape-font-specification:DIN"
         id="path4046"
         inkscape:connector-curvature="0" />
      <path
         d="m 266.35604,260.72888 -1.7226,0 c -1.0956,0 -1.9404,-0.3432 -2.5344,-1.0296 -0.5148,-0.5808 -0.7722,-1.287 -0.7722,-2.1186 l 0,-10.9494 3.2472,0 0,10.7118 c 0,0.4356 0.2178,0.6534 0.6534,0.6534 l 1.1286,0 0,2.7324"
         style="fill:#ff7f2a;-inkscape-font-specification:DIN"
         id="path4048"
         inkscape:connector-curvature="0" />
      <path
         d="m 271.79702,247.62128 c 0,0.54121 -0.198,1.00981 -0.594,1.4058 -0.3828,0.38281 -0.8448,0.57421 -1.386,0.5742 -0.5412,1e-5 -1.0098,-0.19139 -1.4058,-0.5742 -0.3828,-0.39599 -0.5742,-0.86459 -0.5742,-1.4058 0,-0.54119 0.1914,-1.00319 0.5742,-1.386 0.396,-0.39599 0.8646,-0.59399 1.4058,-0.594 0.5412,1e-5 1.0032,0.19801 1.386,0.594 0.396,0.38281 0.594,0.84481 0.594,1.386 m -0.3564,13.1076 -3.2472,0 0,-10.2366 3.2472,0 0,10.2366"
         style="fill:#ff7f2a;-inkscape-font-specification:DIN"
         id="path4050"
         inkscape:connector-curvature="0" />
      <path
         d="m 279.04599,260.72888 -1.6236,0 c -1.0956,0 -1.9404,-0.3432 -2.5344,-1.0296 -0.5148,-0.5808 -0.7722,-1.287 -0.7722,-2.1186 l 0,-4.5936 -0.9702,0 0,-2.4948 0.9702,0 0,-3.0492 3.2472,0 0,3.0492 1.683,0 0,2.4948 -1.683,0 0,4.356 c 0,0.4356 0.2178,0.6534 0.6534,0.6534 l 1.0296,0 0,2.7324"
         style="fill:#ff7f2a;-inkscape-font-specification:DIN"
         id="path4052"
         inkscape:connector-curvature="0" />
      <path
         d="m 284.67475,247.62128 c 0,0.54121 -0.198,1.00981 -0.594,1.4058 -0.3828,0.38281 -0.8448,0.57421 -1.386,0.5742 -0.5412,1e-5 -1.0098,-0.19139 -1.4058,-0.5742 -0.3828,-0.39599 -0.5742,-0.86459 -0.5742,-1.4058 0,-0.54119 0.1914,-1.00319 0.5742,-1.386 0.396,-0.39599 0.8646,-0.59399 1.4058,-0.594 0.5412,1e-5 1.0032,0.19801 1.386,0.594 0.396,0.38281 0.594,0.84481 0.594,1.386 m -0.3564,13.1076 -3.2472,0 0,-10.2366 3.2472,0 0,10.2366"
         style="fill:#ff7f2a;-inkscape-font-specification:DIN"
         id="path4054"
         inkscape:connector-curvature="0" />
      <path
         d="m 295.56692,255.40268 c -10e-6,1.056 -0.0858,1.881 -0.2574,2.475 -0.15841,0.594 -0.46201,1.1286 -0.9108,1.6038 -0.84481,0.9108 -1.98661,1.3662 -3.4254,1.3662 -1.4388,0 -2.5806,-0.4554 -3.4254,-1.3662 -0.4488,-0.4752 -0.759,-1.0098 -0.9306,-1.6038 -0.1584,-0.594 -0.2376,-1.419 -0.2376,-2.475 0,-1.056 0.0792,-1.88099 0.2376,-2.475 0.1716,-0.59399 0.4818,-1.12859 0.9306,-1.6038 0.8448,-0.91079 1.9866,-1.36619 3.4254,-1.3662 1.43879,1e-5 2.58059,0.45541 3.4254,1.3662 0.44879,0.47521 0.75239,1.00981 0.9108,1.6038 0.17159,0.59401 0.25739,1.419 0.2574,2.475 m -3.2472,0 c -1e-5,-0.792 -0.0462,-1.33979 -0.1386,-1.6434 -0.19801,-0.58079 -0.6006,-0.87119 -1.2078,-0.8712 -0.6072,1e-5 -1.0098,0.29041 -1.2078,0.8712 -0.0924,0.30361 -0.1386,0.8514 -0.1386,1.6434 0,0.792 0.0462,1.3398 0.1386,1.6434 0.198,0.5808 0.6006,0.8712 1.2078,0.8712 0.6072,0 1.00979,-0.2904 1.2078,-0.8712 0.0924,-0.3036 0.13859,-0.8514 0.1386,-1.6434"
         style="fill:#ff7f2a;-inkscape-font-specification:DIN"
         id="path4056"
         inkscape:connector-curvature="0" />
      <path
         d="m 306.76938,260.72888 -3.2472,0 0,-6.3756 c -10e-6,-0.54119 -0.16501,-0.93719 -0.495,-1.188 -0.22441,-0.18479 -0.49501,-0.27719 -0.8118,-0.2772 -0.31681,1e-5 -0.58741,0.0924 -0.8118,0.2772 -0.33001,0.25081 -0.49501,0.64681 -0.495,1.188 l 0,6.3756 -3.2472,0 0,-10.6524 3.168,0 0,0.8712 c 0.65999,-0.65999 1.48499,-0.98999 2.475,-0.99 0.98999,1e-5 1.78859,0.30361 2.3958,0.9108 0.71279,0.71281 1.06919,1.72921 1.0692,3.0492 l 0,6.8112"
         style="fill:#ff7f2a;-inkscape-font-specification:DIN"
         id="path4058"
         inkscape:connector-curvature="0" />
    </g>
  </g>
</svg>
